<?xml version="1.0" encoding="iso-8859-1"?>
<!-- Generator: Adobe Illustrator 25.2.1, SVG Export Plug-In . SVG Version: 6.00 Build 0)  -->
<svg version="1.1" id="Layer_1" xmlns="http://www.w3.org/2000/svg" xmlns:xlink="http://www.w3.org/1999/xlink" x="0px" y="0px"
	 viewBox="0 0 800 800" style="enable-background:new 0 0 800 800;" xml:space="preserve">
<g>
	<path id="XMLID_645_" d="M755.903,255.773c-3.016-9.794-8.808-16.897-17.221-21.096c-25.197-12.57-69.376,3.396-101.633,15.051
		c-31.919,11.527-58.497,7.159-86.625,2.537c-8.117-1.339-16.502-2.72-25.183-3.749c-39.515-4.665-56.44,9.583-57.13,10.189
		c-0.211,0.183-0.395,0.409-0.55,0.634c-20.349-7.145-56.707-15.755-98.378-6.666c-34.329,7.497-57.962,20.603-72.505,31.144
		c-14.924,0-51.155,3.269-82.623,31.637c-34.85,31.44-44.588,33.709-76.873,41.248c-3.72,0.86-7.723,1.804-12.091,2.861
		c-7.582,1.832-14.726,3.227-21.632,4.594c-30.665,6.046-54.889,10.809-62.203,45.828c-3.269,15.685,1.846,31.412,14.402,44.292
		c15.938,16.375,40.882,25.634,66.924,25.634c6.482,0,13.035-0.564,19.532-1.747c48.844-8.892,88.767-44.898,103.029-65.966
		c1.141,5.313,2.973,10.203,5.524,14.656c10.161,17.728,30.876,28.015,61.569,30.552c2.086,0.169,4.157,0.324,6.243,0.451
		c-7.68,9.47-11.33,24.788-12.909,33.976c-2.988-3.749-7.469-7.92-13.219-9.104c-5.609-1.156-11.232,0.676-16.728,5.44
		c-12.472,10.837-14.712,35.301-9.681,52.691c3.889,13.416,11.499,21.646,21.448,23.154c20.617,3.157,31.355-6.708,35.217-11.443
		c13.064,6.652,56.031,12.655,88.274,10.062c28.086-2.269,43.869-5.778,49.295-7.159c2.325,3.495,8.258,10.386,20.011,13.359
		c2.818,0.719,5.496,1.085,8.047,1.085c7.892-0.014,14.543-3.453,20.166-10.499c9.752,4.143,20.067,6.201,29.988,6.201
		c11.668,0,22.773-2.861,31.679-8.54c13.374-8.512,20.73-22.632,20.73-39.768c0-28.833-6.905-50.521-19.955-62.682
		c-9.54-8.892-22.238-12.852-37.781-11.767c-14.022,0.972-24.394,4.848-32.018,9.611c0.62-1.79,1.085-3.65,1.367-5.595
		c0.958-6.482-0.113-12.852-2.818-18.278c14.811-4.918,55.016-21.773,53.508-59.371c-0.409-10.287-2.311-19.49-5.017-27.579
		c17.911,9.921,52.071,21.843,90.205,21.829c16.333,0,33.427-2.184,50.267-7.666C745.249,337.381,769.798,300.911,755.903,255.773z"
		/>
	<g id="XMLID_637_">
		<path id="XMLID_849_" style="fill:#FFFFFF;" d="M750.514,257.438c-2.579-8.385-7.286-14.191-14.36-17.714
			c-23.027-11.499-65.896,3.988-97.194,15.304c-33.3,12.035-60.583,7.553-89.458,2.804c-8.047-1.339-16.375-2.706-24.915-3.706
			c-29.608-3.495-45.631,4.256-50.859,7.511c6.581,2.593,10.485,4.636,11.048,4.932c1.381,0.733,1.902,2.438,1.17,3.805
			c-0.733,1.381-2.438,1.902-3.819,1.17c-0.493-0.268-51.07-26.592-111.752-13.359c-29.382,6.412-50.803,17.221-65.106,26.691
			c-2.424,1.607-4.636,3.157-6.637,4.65c-10.696,7.948-15.797,14.05-15.924,14.191c-0.55,0.676-1.367,1.043-2.184,1.043
			c-0.62,0-1.254-0.211-1.776-0.648c-1.212-0.972-1.381-2.748-0.409-3.96c0.38-0.465,3.791-4.552,10.611-10.301
			c-16.826,1.282-45.899,7.046-71.124,29.805c-35.935,32.398-46.885,34.949-79.368,42.53c-3.706,0.874-7.694,1.804-12.049,2.847
			c-7.694,1.86-14.91,3.284-21.871,4.65c-30.848,6.088-51.225,10.09-57.764,41.459c-2.875,13.782,1.705,27.705,12.909,39.205
			c18.644,19.137,50.591,27.875,81.411,22.266c51.874-9.428,94.517-51.845,102.817-69.39c-1.127-16.995,3.889-37.443,14.938-60.47
			c0.662-1.395,2.353-1.987,3.763-1.311c1.395,0.662,1.987,2.353,1.311,3.763c-10.146,21.152-15.008,39.867-14.515,55.411
			c0.028,1.226,0.099,2.438,0.211,3.622c0.662,7.441,2.635,14.064,5.933,19.814c9.188,16.023,28.41,25.366,57.158,27.748
			c3.847,0.324,7.694,0.564,11.542,0.719c1.127,0.056,2.255,0.099,3.382,0.127c53.945,1.776,105.748-10.118,118.276-13.233
			c-0.155-0.789-0.24-1.607-0.268-2.466c-0.197-7.356,4.566-15.191,12.133-19.926c8.949-5.623,19.828-5.862,29.847-0.676
			c3.495,1.804,6.482,4.34,8.864,7.356c12.373-3.904,52.367-19.236,50.972-54.241c-0.479-12.232-3.269-22.886-7.004-31.863
			c-9.09-21.97-23.774-33.878-23.985-34.033c-1.226-0.972-1.423-2.748-0.465-3.96c0.972-1.226,2.748-1.423,3.96-0.465
			c0.874,0.691,15.304,12.345,24.859,34.061c0.24,0.085,0.465,0.197,0.676,0.338c20.687,13.782,82.44,36.076,141.303,16.925
			C740.932,332.846,763.55,299.814,750.514,257.438z M317.064,436.537c-5.2,3.763-12.359,6.384-20.152,7.356
			c-2.255,0.282-4.467,0.423-6.595,0.423c-13.923,0-24.788-5.792-25.873-14.459c-0.634-5.073,2.142-10.146,7.849-14.261
			c5.2-3.763,12.359-6.384,20.152-7.356c16.953-2.128,31.214,4.03,32.469,14.036c0.056,0.479,0.085,0.944,0.085,1.423
			C324.998,428.293,322.236,432.802,317.064,436.537z M340.147,382.577l-51.084,17.263c-0.296,0.113-0.606,0.155-0.902,0.155
			c-1.17,0-2.269-0.747-2.663-1.917c-0.507-1.48,0.282-3.072,1.762-3.565l51.084-17.263c1.48-0.507,3.072,0.282,3.565,1.762
			C342.416,380.492,341.627,382.084,340.147,382.577z M429.408,395.232c-0.916,3.847-5.003,6.764-11.513,8.216
			c-4.707,1.057-8.568,0.197-11.964-0.564c-3.495-0.775-6.525-1.452-10.316-0.211c-2.72,0.888-5.524,2.396-8.244,3.847
			c-3.875,2.072-7.835,4.199-11.358,4.199c-1.818,0-3.509-0.564-5.031-1.959c-4.918-4.538-2.762-11.838-0.719-15.445
			c0.775-1.353,2.494-1.818,3.847-1.057c1.353,0.775,1.818,2.48,1.057,3.833c-0.042,0.085-3.185,5.919-0.366,8.526
			c1.536,1.423,5.792-0.86,9.907-3.058c2.931-1.578,5.961-3.199,9.146-4.242c5.285-1.719,9.54-0.775,13.303,0.07
			c3.1,0.691,6.031,1.339,9.512,0.564c4.566-1.029,6.962-2.804,7.243-4.03c0.225-0.902-0.691-2.297-2.438-3.734
			c-1.198-0.986-1.367-2.762-0.38-3.96c1.001-1.198,2.776-1.367,3.974-0.38C429.605,389.595,429.929,393.02,429.408,395.232z
			 M449.87,363.356c-1.55,0-2.818-1.268-2.818-2.818c0-1.55,1.268-2.818,2.818-2.818h48.971c1.55,0,2.818,1.268,2.818,2.818
			c0,1.55-1.268,2.818-2.818,2.818H449.87z M525.165,374.094c6.539,2.579,10.499,6.807,11.133,11.894
			c0.634,5.073-2.142,10.146-7.849,14.261c-5.2,3.763-12.359,6.384-20.152,7.356c-2.212,0.282-4.411,0.423-6.567,0.423
			c-5.397,0-10.499-0.874-14.769-2.565c-6.539-2.579-10.499-6.807-11.133-11.894c-0.634-5.073,2.142-10.146,7.849-14.261
			c5.2-3.763,12.359-6.384,20.152-7.356C511.608,370.965,519.19,371.741,525.165,374.094z"/>
		<path id="XMLID_864_" style="fill:#FFFFFF;" d="M487.487,475.458c1.635,4.707,3.269,11.02,3.636,18.094
			c3.255-1.846,6.849-3.086,10.654-3.185c5.369-0.141,10.344,2.579,13.937,7.652c3.904,5.496,5.975,13.275,6.102,21.716
			c11.471,2.508,20.645,1.508,24.577-2.649c2.015-2.142,2.523-5.003,1.536-8.512c-2.875-10.132-10.781-12.288-10.865-12.317
			c-1.508-0.395-2.41-1.931-2.015-3.439s1.931-2.41,3.439-2.015c0.451,0.113,11.119,3.016,14.853,16.22
			c1.536,5.411,0.521,10.358-2.861,13.937c-3.622,3.833-9.512,5.792-17.122,5.792c-3.551,0-7.483-0.423-11.739-1.297
			c-0.451,5.327-1.635,10.767-3.579,15.924c-1.931,5.158-4.044,9.583-6.356,13.317c19.335,7.807,40.684,6.976,55.354-2.368
			c11.852-7.553,18.123-19.659,18.123-35.019c0-27.24-6.285-47.491-18.165-58.567c-8.357-7.779-19.631-11.232-33.54-10.259
			C500.903,450.782,490.052,469.708,487.487,475.458z"/>
		<path id="XMLID_872_" style="fill:#FFFFFF;" d="M511.115,501.291c-1.719-2.438-4.665-5.299-8.977-5.299h-0.24
			c-4.03,0.099-7.878,2.001-11.246,4.594c-7.384,5.637-12.556,14.473-12.627,14.614c-0.775,1.339-2.494,1.804-3.847,1.029
			c-1.339-0.775-1.804-2.494-1.029-3.847c0.31-0.535,5.059-8.681,12.415-14.91v-0.169c0.113-7.187-1.409-13.81-3.03-18.785
			c-0.352-1.113-0.719-2.156-1.085-3.086c-0.437-1.198-0.874-2.241-1.254-3.1c-2.114,0.733-4.369,1.339-6.736,1.776
			c-0.169,0.028-0.352,0.056-0.521,0.056c-1.325,0-2.508-0.958-2.762-2.311c-0.282-1.522,0.719-3.002,2.255-3.284
			c2.297-0.423,4.467-1.015,6.482-1.762c1.071-0.395,2.1-0.831,3.072-1.311c8.23-4.002,13.571-10.851,14.853-19.433
			c0.831-5.679-0.211-11.232-2.762-15.826c-0.817-1.508-1.818-2.903-2.959-4.171c-1.705-1.917-3.749-3.523-6.074-4.721
			c-8.216-4.242-17.066-4.087-24.281,0.437c-5.82,3.664-9.625,9.681-9.484,15.008c0.028,1.24,0.324,2.382,0.803,3.41
			c3.467,7.596,17.178,9.71,17.333,9.738c1.536,0.225,2.607,1.649,2.382,3.199c-0.225,1.536-1.649,2.593-3.199,2.382
			c-0.733-0.113-14.726-2.255-20.504-10.851c-10.527,2.649-57.821,13.796-109.455,13.796c-4.199,0-8.427-0.07-12.655-0.24
			c-12.782,10.273-15.84,41.417-15.882,41.741l-0.944,10.09l-4.397-9.132c-0.056-0.113-5.411-11.006-13.571-12.669
			c-3.791-0.775-7.779,0.62-11.866,4.171c-9.329,8.103-12.979,29.566-7.976,46.871c1.888,6.482,6.567,17.573,16.883,19.151
			c22.322,3.396,30.848-10.499,31.2-11.091l1.705-2.861l2.551,2.128c6.186,5.228,50.239,13.331,86.738,10.386
			c34.188-2.748,50.098-7.469,50.253-7.511l2.339-0.719l1.029,2.227c0.169,0.352,4.495,9.075,17.517,12.373
			c6.764,1.719,14.91,1.888,22.562-7.737c0.586-0.706,1.221-1.531,1.902-2.593c2.325-3.481,4.58-7.948,6.736-13.655
			c2.283-6.06,3.326-11.95,3.467-17.319C516.47,513.185,514.243,505.702,511.115,501.291z M371.404,504.039
			c-0.719,5.693-3.199,9.569-7.356,11.499c-2.001,0.944-4.256,1.325-6.609,1.325c-10.724,0-23.633-8.047-25.352-9.16
			c-1.311-0.831-1.691-2.579-0.846-3.889c0.831-1.311,2.579-1.691,3.889-0.846c4.989,3.199,19.49,10.766,26.536,7.469
			c2.325-1.085,3.678-3.41,4.143-7.103c2.565-20.279-12.401-29.805-12.542-29.89c-1.325-0.831-1.733-2.565-0.916-3.889
			s2.551-1.733,3.875-0.902C356.974,469.104,374.406,480.209,371.404,504.039z"/>
	</g>
	<g id="XMLID_638_">
		<path id="XMLID_869_" style="fill:#F285A1;" d="M481.428,392.863c0.366,2.917,3.128,5.595,7.61,7.356
			c5.101,2.015,11.697,2.649,18.56,1.79c6.877-0.86,13.106-3.1,17.559-6.327c3.889-2.818,5.919-6.088,5.552-8.991v-0.014
			c-0.366-2.903-3.128-5.581-7.61-7.342c-3.622-1.437-7.99-2.17-12.669-2.17c-1.931,0-3.904,0.127-5.891,0.38
			c-6.877,0.86-13.106,3.1-17.559,6.327C483.091,386.69,481.061,389.96,481.428,392.863z"/>
		<path id="XMLID_892_" style="fill:#F285A1;" d="M296.213,438.296c6.877-0.86,13.106-3.1,17.559-6.327
			c3.889-2.818,5.919-6.088,5.552-9.005c-0.31-2.494-2.508-4.862-6.074-6.623c-3.565-1.762-8.498-2.889-14.275-2.889
			c-1.86,0-3.805,0.127-5.82,0.38c-6.877,0.86-13.106,3.1-17.559,6.327c-3.889,2.818-5.919,6.088-5.552,9.005
			C270.762,434.942,281.698,440.114,296.213,438.296z"/>
	</g>
</g>
</svg>
